<svg xmlns="http://www.w3.org/2000/svg" width="1062" height="719" baseProfile="tiny-ps" version="1.2" viewBox="0 0 1062 719"><title>&lt;Group&gt;</title><defs><linearGradient id="grd1" x1="323.982" x2="736.777" y1="-5.37" y2="-5.37" gradientUnits="userSpaceOnUse"><stop offset="0" stop-color="#48cfee"/><stop offset="1" stop-color="#63cbaa"/></linearGradient><linearGradient id="grd2" x1="323.982" x2="677.796" y1="23.173" y2="23.173" gradientUnits="userSpaceOnUse"><stop offset="0" stop-color="#3586c9"/><stop offset="1" stop-color="#48cfee"/></linearGradient><linearGradient id="grd3" x1="323.982" x2="618.774" y1="23.173" y2="23.173" gradientUnits="userSpaceOnUse"><stop offset="0" stop-color="#1957ae"/><stop offset="1" stop-color="#3586c9"/></linearGradient><linearGradient id="grd4" x1="318" x2="318" y1="563.776" y2="29.173" gradientUnits="userSpaceOnUse"><stop offset="0" stop-color="#1957ae"/><stop offset="1" stop-color="#5b4fa9"/></linearGradient></defs><style>tspan{white-space:pre}.shp0{fill:url(#grd1)}.shp1{fill:url(#grd2)}.shp2{fill:url(#grd3)}.shp3{fill:url(#grd4)}.txt4{font-size:52px;fill:#3d3df4;font-weight:900;font-family:&quot;Montserrat-Black&quot;,&quot;Montserrat&quot;;text-anchor:middle}</style><g id="&lt;Group&gt;"><g id="&lt;Group&gt;"><path id="&lt;Path&gt;" d="M323.98 29.17L337.58 385.96C338.06 398.52 348.88 408.18 361.42 407.23L716.71 380.34C728.6 379.44 737.65 369.29 737.2 357.38L724.41 21.94C723.93 9.37 713.11 -0.28 700.57 0.67L323.98 29.17Z" class="shp0"/><path id="&lt;Path&gt;" d="M323.98 29.17L338.46 408.97L677.8 439.9L663.32 60.1L323.98 29.17Z" class="shp1"/><path id="&lt;Path&gt;" d="M323.98 29.17L338.46 408.97L618.77 512.78L604.29 132.98L323.98 29.17Z" class="shp2"/><path id="&lt;Path&gt;" d="M323.98 29.17L338.25 403.36C338.38 406.93 340.01 410.29 342.74 412.6L522.65 565.5C537.02 577.71 559.04 567.01 558.32 548.17L546.08 227.13C545.85 221.07 543.09 215.38 538.47 211.45L323.98 29.17Z" class="shp3"/></g><g id="&lt;Group&gt;"><text id="bookreviewer" style="transform:matrix(3,0,0,3,530,716.699)"><tspan x="0" y="0" class="txt4">bookreviewer</tspan></text></g></g></svg>